<?xml version="1.0" encoding="UTF-8"?>
<svg width="32" height="32" viewBox="0 0 32 32" fill="none" xmlns="http://www.w3.org/2000/svg">
  <path d="M24.5 22.5C27.5376 22.5 30 20.0376 30 17C30 13.9624 27.5376 11.5 24.5 11.5C24.3617 11.5 24.2251 11.5069 24.0903 11.5205C23.2226 8.19897 20.2212 5.75 16.6667 5.75C12.5244 5.75 9.16667 9.10786 9.16667 13.25C9.16667 13.4202 9.17359 13.5887 9.18714 13.7553C8.85005 13.6774 8.49886 13.6364 8.13889 13.6364C5.29923 13.6364 3 15.9356 3 18.7753C3 21.6149 5.29923 23.9141 8.13889 23.9141H24.5V22.5Z" fill="#3B82F6"/>
  <path d="M24.5 22.5C27.5376 22.5 30 20.0376 30 17C30 13.9624 27.5376 11.5 24.5 11.5C24.3617 11.5 24.2251 11.5069 24.0903 11.5205C23.2226 8.19897 20.2212 5.75 16.6667 5.75C12.5244 5.75 9.16667 9.10786 9.16667 13.25C9.16667 13.4202 9.17359 13.5887 9.18714 13.7553C8.85005 13.6774 8.49886 13.6364 8.13889 13.6364C5.29923 13.6364 3 15.9356 3 18.7753C3 21.6149 5.29923 23.9141 8.13889 23.9141H24.5V22.5Z" fill="url(#paint0_linear)" fill-opacity="0.2"/>
  <defs>
    <linearGradient id="paint0_linear" x1="16.5" y1="5.75" x2="16.5" y2="23.9141" gradientUnits="userSpaceOnUse">
      <stop stop-color="white"/>
      <stop offset="1" stop-color="white" stop-opacity="0"/>
    </linearGradient>
  </defs>
</svg>